<svg width="175" height="45" viewBox="0 0 175 45" fill="none" xmlns="http://www.w3.org/2000/svg">
<rect width="175" height="45" fill="white"/>
<path d="M16.7274 33.296C18.1568 33.296 19.3088 32.944 20.1834 32.24C21.0794 31.536 21.5274 30.5013 21.5274 29.136C21.5274 28.048 21.1968 27.1413 20.5354 26.416C19.8741 25.6693 18.7221 25.072 17.0794 24.624L14.8714 23.984C13.2501 23.536 12.0128 22.7787 11.1594 21.712C10.3061 20.6453 9.87943 19.344 9.87943 17.808C9.87943 16.784 10.1141 15.824 10.5834 14.928C11.0741 14.032 11.8101 13.3067 12.7914 12.752C13.7941 12.1973 15.0634 11.92 16.5994 11.92C18.3061 11.92 19.6821 12.24 20.7274 12.88C21.7728 13.4987 22.4981 14.3093 22.9034 15.312C23.3088 16.3147 23.4048 17.392 23.1914 18.544L20.5034 19.12C20.7808 17.136 20.5781 15.6107 19.8954 14.544C19.2341 13.4773 18.0821 12.944 16.4394 12.944C15.1381 12.944 14.1141 13.296 13.3674 14C12.6208 14.6827 12.2474 15.6853 12.2474 17.008C12.2474 18.0533 12.5461 18.9493 13.1434 19.696C13.7408 20.4213 14.7968 20.9973 16.3114 21.424L18.5194 22.064C22.0821 23.0453 23.8634 25.1253 23.8634 28.304C23.8634 29.4347 23.5968 30.4587 23.0634 31.376C22.5514 32.272 21.7621 32.9867 20.6954 33.52C19.6501 34.0533 18.3274 34.32 16.7274 34.32C15.6181 34.32 14.5514 34.1493 13.5274 33.808C12.5248 33.4667 11.6608 32.88 10.9354 32.048C10.2314 31.216 9.7621 30.064 9.52743 28.592L11.4474 27.952C11.5541 29.36 11.8634 30.448 12.3754 31.216C12.8874 31.984 13.5274 32.528 14.2954 32.848C15.0634 33.1467 15.8741 33.296 16.7274 33.296ZM31.6347 33.168V34H25.5547V33.168L27.2827 32.976C27.5173 32.9547 27.688 32.9227 27.7947 32.88C27.9013 32.816 27.9973 32.688 28.0827 32.496C28.1893 32.2827 28.3173 31.92 28.4667 31.408L34.6427 12.24H36.6587L42.8987 31.408C43.048 31.92 43.1654 32.2827 43.2507 32.496C43.3574 32.688 43.464 32.816 43.5707 32.88C43.6774 32.9227 43.8374 32.9547 44.0507 32.976L45.8107 33.168V34H38.0347V33.168L39.7947 32.976C40.136 32.9333 40.3174 32.848 40.3387 32.72C40.3813 32.5707 40.2854 32.1333 40.0507 31.408L38.7387 27.312H30.9307L29.6187 31.408C29.384 32.1333 29.2773 32.5707 29.2987 32.72C29.3413 32.848 29.5333 32.9333 29.8747 32.976L31.6347 33.168ZM31.2507 26.288H38.4187L34.8347 15.152L31.2507 26.288ZM60.4644 13.104V12.24H66.5764V13.104L64.8164 13.264C64.4751 13.3067 64.2724 13.4027 64.2084 13.552C64.1444 13.68 64.1124 14.1067 64.1124 14.832V34H62.5444L50.8964 14.352V31.408C50.8964 32.1333 50.9284 32.5707 50.9924 32.72C51.0564 32.848 51.2591 32.9333 51.6004 32.976L53.3604 33.168V34H47.2484V33.168L49.0084 32.976C49.3498 32.9333 49.5524 32.848 49.6164 32.72C49.6804 32.5707 49.7124 32.1333 49.7124 31.408V14.832C49.7124 14.1067 49.6804 13.68 49.6164 13.552C49.5524 13.4027 49.3498 13.3067 49.0084 13.264L47.2484 13.104V12.24H52.7844L62.9284 29.392V14.832C62.9284 14.1067 62.8964 13.68 62.8324 13.552C62.7684 13.4027 62.5658 13.3067 62.2244 13.264L60.4644 13.104ZM69.3734 13.104V12.24H78.4614C81.0641 12.24 83.0588 13.0827 84.4454 14.768C85.8321 16.4533 86.5254 18.832 86.5254 21.904V24.304C86.5254 27.3973 85.8321 29.7867 84.4454 31.472C83.0588 33.1573 81.0641 34 78.4614 34H69.3734V33.168L71.1334 32.976C71.4748 32.9333 71.6774 32.848 71.7414 32.72C71.8054 32.592 71.8374 32.1547 71.8374 31.408V14.832C71.8374 14.0853 71.8054 13.648 71.7414 13.52C71.6774 13.392 71.4748 13.3067 71.1334 13.264L69.3734 13.104ZM78.3974 13.264H74.6214V32.976H78.3974C79.5494 32.976 80.4988 32.7627 81.2454 32.336C81.9921 31.9093 82.5468 31.184 82.9094 30.16C83.2934 29.1147 83.4854 27.696 83.4854 25.904V20.304C83.4854 18.5333 83.2934 17.136 82.9094 16.112C82.5468 15.088 81.9921 14.3627 81.2454 13.936C80.4988 13.488 79.5494 13.264 78.3974 13.264Z" fill="black"/>
<path d="M98.0687 33.296C99.1567 33.296 100.042 32.976 100.725 32.336C101.407 31.6747 101.802 30.8213 101.909 29.776C102.037 28.7307 101.791 27.6213 101.173 26.448L103.253 25.136L107.189 31.792C107.53 32.3893 107.775 32.7413 107.925 32.848C108.074 32.9333 108.319 32.9973 108.661 33.04L110.229 33.2V34H105.557L102.997 29.552C102.975 30.8533 102.517 31.9733 101.621 32.912C100.746 33.8507 99.4874 34.32 97.8447 34.32C96.0314 34.32 94.538 33.8933 93.3647 33.04C92.1914 32.1653 91.6047 30.9173 91.6047 29.296C91.6047 27.952 92.0634 26.7787 92.9807 25.776C93.9194 24.752 95.2314 23.728 96.9167 22.704L97.2687 22.48C95.7754 21.648 94.666 20.7627 93.9407 19.824C93.2154 18.8853 92.8527 17.8933 92.8527 16.848C92.8527 16.016 93.0767 15.2267 93.5247 14.48C93.9727 13.712 94.6127 13.0933 95.4447 12.624C96.298 12.1547 97.29 11.92 98.4207 11.92C99.594 11.92 100.586 12.1547 101.397 12.624C102.229 13.072 102.869 13.6693 103.317 14.416C103.765 15.1627 103.989 15.9733 103.989 16.848C103.989 17.7013 103.786 18.448 103.381 19.088C102.997 19.728 102.463 20.304 101.781 20.816C101.119 21.3067 100.383 21.808 99.5727 22.32L97.7807 23.472C96.7354 24.1333 95.9034 24.9227 95.2847 25.84C94.6874 26.736 94.3887 27.8453 94.3887 29.168C94.3887 30.64 94.7514 31.696 95.4767 32.336C96.2234 32.976 97.0874 33.296 98.0687 33.296ZM95.6367 16.688C95.6367 17.4773 95.7967 18.3307 96.1167 19.248C96.4367 20.144 97.1194 21.0293 98.1647 21.904L98.7727 21.488C99.562 20.9973 100.159 20.368 100.565 19.6C100.991 18.832 101.205 17.8933 101.205 16.784C101.205 15.4827 100.949 14.5227 100.437 13.904C99.9247 13.264 99.2634 12.944 98.4527 12.944C97.642 12.944 96.97 13.2427 96.4367 13.84C95.9034 14.416 95.6367 15.3653 95.6367 16.688Z" fill="#7AD3D3"/>
<path d="M119.24 33.168V34H113.16V33.168L114.888 32.976C115.123 32.9547 115.293 32.9227 115.4 32.88C115.507 32.816 115.603 32.688 115.688 32.496C115.795 32.2827 115.923 31.92 116.072 31.408L122.248 12.24H124.264L130.504 31.408C130.653 31.92 130.771 32.2827 130.856 32.496C130.963 32.688 131.069 32.816 131.176 32.88C131.283 32.9227 131.443 32.9547 131.656 32.976L133.416 33.168V34H125.64V33.168L127.4 32.976C127.741 32.9333 127.923 32.848 127.944 32.72C127.987 32.5707 127.891 32.1333 127.656 31.408L126.344 27.312H118.536L117.224 31.408C116.989 32.1333 116.883 32.5707 116.904 32.72C116.947 32.848 117.139 32.9333 117.48 32.976L119.24 33.168ZM118.856 26.288H126.024L122.44 15.152L118.856 26.288ZM148.55 28.72H149.414V34H134.854V33.168L136.614 32.976C136.955 32.9333 137.158 32.848 137.222 32.72C137.286 32.592 137.318 32.1547 137.318 31.408V14.832C137.318 14.0853 137.286 13.648 137.222 13.52C137.158 13.392 136.955 13.3067 136.614 13.264L134.854 13.104V12.24H142.566V13.104L140.806 13.264C140.464 13.3067 140.262 13.392 140.198 13.52C140.134 13.648 140.102 14.0853 140.102 14.832V32.976H145.894C146.406 32.976 146.768 32.9653 146.982 32.944C147.195 32.9013 147.334 32.8267 147.398 32.72C147.483 32.592 147.558 32.4 147.622 32.144L148.55 28.72ZM165.019 28.72H165.883V34H151.323V33.168L153.083 32.976C153.424 32.9333 153.627 32.848 153.691 32.72C153.755 32.592 153.787 32.1547 153.787 31.408V14.832C153.787 14.0853 153.755 13.648 153.691 13.52C153.627 13.392 153.424 13.3067 153.083 13.264L151.323 13.104V12.24H159.035V13.104L157.275 13.264C156.933 13.3067 156.731 13.392 156.667 13.52C156.603 13.648 156.571 14.0853 156.571 14.832V32.976H162.363C162.875 32.976 163.237 32.9653 163.451 32.944C163.664 32.9013 163.803 32.8267 163.867 32.72C163.952 32.592 164.027 32.4 164.091 32.144L165.019 28.72Z" fill="black"/>
</svg>
