<svg width="259" height="56" viewBox="0 0 259 56" fill="none" xmlns="http://www.w3.org/2000/svg">
<rect y="5" width="259" height="51" fill="white"/>
<path d="M20.2345 45.944C22.3785 45.944 24.1065 45.416 25.4185 44.36C26.7625 43.304 27.4345 41.752 27.4345 39.704C27.4345 38.072 26.9385 36.712 25.9465 35.624C24.9545 34.504 23.2265 33.608 20.7625 32.936L17.4505 31.976C15.0185 31.304 13.1625 30.168 11.8825 28.568C10.6025 26.968 9.96251 25.016 9.96251 22.712C9.96251 21.176 10.3145 19.736 11.0185 18.392C11.7545 17.048 12.8585 15.96 14.3305 15.128C15.8345 14.296 17.7385 13.88 20.0425 13.88C22.6025 13.88 24.6665 14.36 26.2345 15.32C27.8025 16.248 28.8905 17.464 29.4985 18.968C30.1065 20.472 30.2505 22.088 29.9305 23.816L25.8985 24.68C26.3145 21.704 26.0105 19.416 24.9865 17.816C23.9945 16.216 22.2665 15.416 19.8025 15.416C17.8505 15.416 16.3145 15.944 15.1945 17C14.0745 18.024 13.5145 19.528 13.5145 21.512C13.5145 23.08 13.9625 24.424 14.8585 25.544C15.7545 26.632 17.3385 27.496 19.6105 28.136L22.9225 29.096C28.2665 30.568 30.9385 33.688 30.9385 38.456C30.9385 40.152 30.5385 41.688 29.7385 43.064C28.9705 44.408 27.7865 45.48 26.1865 46.28C24.6185 47.08 22.6345 47.48 20.2345 47.48C18.5705 47.48 16.9705 47.224 15.4345 46.712C13.9305 46.2 12.6345 45.32 11.5465 44.072C10.4905 42.824 9.78651 41.096 9.43451 38.888L12.3145 37.928C12.4745 40.04 12.9385 41.672 13.7065 42.824C14.4745 43.976 15.4345 44.792 16.5865 45.272C17.7385 45.72 18.9545 45.944 20.2345 45.944ZM42.5954 45.752V47H33.4754V45.752L36.0674 45.464C36.4194 45.432 36.6754 45.384 36.8354 45.32C36.9954 45.224 37.1394 45.032 37.2674 44.744C37.4274 44.424 37.6194 43.88 37.8434 43.112L47.1074 14.36H50.1314L59.4914 43.112C59.7154 43.88 59.8914 44.424 60.0194 44.744C60.1794 45.032 60.3394 45.224 60.4994 45.32C60.6594 45.384 60.8994 45.432 61.2194 45.464L63.8594 45.752V47H52.1954V45.752L54.8354 45.464C55.3474 45.4 55.6194 45.272 55.6514 45.08C55.7154 44.856 55.5714 44.2 55.2194 43.112L53.2514 36.968H41.5394L39.5714 43.112C39.2194 44.2 39.0594 44.856 39.0914 45.08C39.1554 45.272 39.4434 45.4 39.9554 45.464L42.5954 45.752ZM42.0194 35.432H52.7714L47.3954 18.728L42.0194 35.432ZM85.84 15.656V14.36H95.008V15.656L92.368 15.896C91.856 15.96 91.552 16.104 91.456 16.328C91.36 16.52 91.312 17.16 91.312 18.248V47H88.96L71.488 17.528V43.112C71.488 44.2 71.536 44.856 71.632 45.08C71.728 45.272 72.032 45.4 72.544 45.464L75.184 45.752V47H66.016V45.752L68.656 45.464C69.168 45.4 69.472 45.272 69.568 45.08C69.664 44.856 69.712 44.2 69.712 43.112V18.248C69.712 17.16 69.664 16.52 69.568 16.328C69.472 16.104 69.168 15.96 68.656 15.896L66.016 15.656V14.36H74.32L89.536 40.088V18.248C89.536 17.16 89.488 16.52 89.392 16.328C89.296 16.104 88.992 15.96 88.48 15.896L85.84 15.656ZM99.2035 15.656V14.36H112.836C116.74 14.36 119.732 15.624 121.812 18.152C123.892 20.68 124.932 24.248 124.932 28.856V32.456C124.932 37.096 123.892 40.68 121.812 43.208C119.732 45.736 116.74 47 112.836 47H99.2035V45.752L101.844 45.464C102.356 45.4 102.66 45.272 102.756 45.08C102.852 44.888 102.9 44.232 102.9 43.112V18.248C102.9 17.128 102.852 16.472 102.756 16.28C102.66 16.088 102.356 15.96 101.844 15.896L99.2035 15.656ZM112.74 15.896H107.076V45.464H112.74C114.468 45.464 115.892 45.144 117.012 44.504C118.132 43.864 118.964 42.776 119.508 41.24C120.084 39.672 120.372 37.544 120.372 34.856V26.456C120.372 23.8 120.084 21.704 119.508 20.168C118.964 18.632 118.132 17.544 117.012 16.904C115.892 16.232 114.468 15.896 112.74 15.896Z" fill="black"/>
<path d="M144.768 45.944C146.4 45.944 147.728 45.464 148.752 44.504C149.776 43.512 150.368 42.232 150.528 40.664C150.72 39.096 150.352 37.432 149.424 35.672L152.544 33.704L158.448 43.688C158.96 44.584 159.328 45.112 159.552 45.272C159.776 45.4 160.144 45.496 160.656 45.56L163.008 45.8V47H156L152.16 40.328C152.128 42.28 151.44 43.96 150.096 45.368C148.784 46.776 146.896 47.48 144.432 47.48C141.712 47.48 139.472 46.84 137.712 45.56C135.952 44.248 135.072 42.376 135.072 39.944C135.072 37.928 135.76 36.168 137.136 34.664C138.544 33.128 140.512 31.592 143.04 30.056L143.568 29.72C141.328 28.472 139.664 27.144 138.576 25.736C137.488 24.328 136.944 22.84 136.944 21.272C136.944 20.024 137.28 18.84 137.952 17.72C138.624 16.568 139.584 15.64 140.832 14.936C142.112 14.232 143.6 13.88 145.296 13.88C147.056 13.88 148.544 14.232 149.76 14.936C151.008 15.608 151.968 16.504 152.64 17.624C153.312 18.744 153.648 19.96 153.648 21.272C153.648 22.552 153.344 23.672 152.736 24.632C152.16 25.592 151.36 26.456 150.336 27.224C149.344 27.96 148.24 28.712 147.024 29.48L144.336 31.208C142.768 32.2 141.52 33.384 140.592 34.76C139.696 36.104 139.248 37.768 139.248 39.752C139.248 41.96 139.792 43.544 140.88 44.504C142 45.464 143.296 45.944 144.768 45.944ZM141.12 21.032C141.12 22.216 141.36 23.496 141.84 24.872C142.32 26.216 143.344 27.544 144.912 28.856L145.824 28.232C147.008 27.496 147.904 26.552 148.512 25.4C149.152 24.248 149.472 22.84 149.472 21.176C149.472 19.224 149.088 17.784 148.32 16.856C147.552 15.896 146.56 15.416 145.344 15.416C144.128 15.416 143.12 15.864 142.32 16.76C141.52 17.624 141.12 19.048 141.12 21.032Z" fill="#7AD3D3"/>
<path d="M178.636 45.752V47H169.516V45.752L172.108 45.464C172.46 45.432 172.716 45.384 172.876 45.32C173.036 45.224 173.18 45.032 173.308 44.744C173.468 44.424 173.66 43.88 173.884 43.112L183.148 14.36H186.172L195.532 43.112C195.756 43.88 195.932 44.424 196.06 44.744C196.22 45.032 196.38 45.224 196.54 45.32C196.7 45.384 196.94 45.432 197.26 45.464L199.9 45.752V47H188.236V45.752L190.876 45.464C191.388 45.4 191.66 45.272 191.692 45.08C191.756 44.856 191.612 44.2 191.26 43.112L189.292 36.968H177.58L175.612 43.112C175.26 44.2 175.1 44.856 175.132 45.08C175.196 45.272 175.484 45.4 175.996 45.464L178.636 45.752ZM178.06 35.432H188.812L183.436 18.728L178.06 35.432ZM222.6 39.08H223.896V47H202.056V45.752L204.696 45.464C205.208 45.4 205.512 45.272 205.608 45.08C205.704 44.888 205.752 44.232 205.752 43.112V18.248C205.752 17.128 205.704 16.472 205.608 16.28C205.512 16.088 205.208 15.96 204.696 15.896L202.056 15.656V14.36H213.624V15.656L210.984 15.896C210.472 15.96 210.168 16.088 210.072 16.28C209.976 16.472 209.928 17.128 209.928 18.248V45.464H218.616C219.384 45.464 219.928 45.448 220.248 45.416C220.568 45.352 220.776 45.24 220.872 45.08C221 44.888 221.112 44.6 221.208 44.216L222.6 39.08ZM247.304 39.08H248.6V47H226.76V45.752L229.4 45.464C229.912 45.4 230.216 45.272 230.312 45.08C230.408 44.888 230.456 44.232 230.456 43.112V18.248C230.456 17.128 230.408 16.472 230.312 16.28C230.216 16.088 229.912 15.96 229.4 15.896L226.76 15.656V14.36H238.328V15.656L235.688 15.896C235.176 15.96 234.872 16.088 234.776 16.28C234.68 16.472 234.632 17.128 234.632 18.248V45.464H243.32C244.088 45.464 244.632 45.448 244.952 45.416C245.272 45.352 245.48 45.24 245.576 45.08C245.704 44.888 245.816 44.6 245.912 44.216L247.304 39.08Z" fill="black"/>
</svg>
