<?xml version="1.0" encoding="UTF-8"?>
<svg version="1.1" xmlns="http://www.w3.org/2000/svg" width="64" height="64">
<path d="M0 0 C5.625 -0.25 5.625 -0.25 9 2 C9.66 1.34 10.32 0.68 11 0 C12.32 0 13.64 0 15 0 C15.33 0.99 15.66 1.98 16 3 C19.00007271 4.70855022 19.00007271 4.70855022 22 6 C22 6.99 22 7.98 22 9 C19.525 8.505 19.525 8.505 17 8 C18.10041919 9.68681738 18.10041919 9.68681738 20 11 C22.85518209 10.80315654 22.85518209 10.80315654 26 10 C27.258125 9.855625 28.51625 9.71125 29.8125 9.5625 C30.864375 9.376875 31.91625 9.19125 33 9 C33.33 8.34 33.66 7.68 34 7 C35.32 7.66 36.64 8.32 38 9 C38 9.66 38 10.32 38 11 C40.97 11 43.94 11 47 11 C47.495 11.99 47.495 11.99 48 13 C47.67 13.66 47.34 14.32 47 15 C47.99 15.33 48.98 15.66 50 16 C50 16.99 50 17.98 50 19 C49.01 19.33 48.02 19.66 47 20 C46.67 22.97 46.34 25.94 46 29 C46.66 29 47.32 29 48 29 C50.12838262 35.38514787 49.93209715 42.66401965 47.3125 48.875 C43.85300469 55.5066969 39.83967056 59.93750966 33.0078125 63.078125 C25.33518714 65.42973485 16.8865733 65.29412582 9.5 62.0625 C3.47013399 58.52497861 -0.29812568 53.32975411 -3.4375 47.1875 C-4.93919136 38.67791562 -5.08459159 30.31957691 0 23 C2.49918015 20.42450901 5.13742921 18.16082407 8 16 C7.67 14.68 7.34 13.36 7 12 C6.34 12 5.68 12 5 12 C4.01 14.97 3.02 17.94 2 21 C1.01 20.67 0.02 20.34 -1 20 C-0.67 18.02 -0.34 16.04 0 14 C-0.99 14 -1.98 14 -3 14 C-2.125 9.25 -2.125 9.25 -1 7 C-1.99 7 -2.98 7 -4 7 C-4 6.01 -4 5.02 -4 4 C-2.68 3.34 -1.36 2.68 0 2 C0 1.34 0 0.68 0 0 Z M2 9 C2 9.99 2 10.98 2 12 C2.66 11.01 3.32 10.02 4 9 C3.34 9 2.68 9 2 9 Z M11 10 C11.33 11.32 11.66 12.64 12 14 C13.32 13.67 14.64 13.34 16 13 C15.34 12.01 14.68 11.02 14 10 C13.01 10 12.02 10 11 10 Z M0 12 C1 14 1 14 1 14 Z M42 20 C43 22 43 22 43 22 Z " fill="#FC5363" transform="translate(9,0)"/>
<path d="M0 0 C5.625 -0.25 5.625 -0.25 9 2 C9.66 1.34 10.32 0.68 11 0 C12.32 0 13.64 0 15 0 C15.33 0.99 15.66 1.98 16 3 C19.00007271 4.70855022 19.00007271 4.70855022 22 6 C22 6.99 22 7.98 22 9 C19.525 8.505 19.525 8.505 17 8 C18.10041919 9.68681738 18.10041919 9.68681738 20 11 C22.85518209 10.80315654 22.85518209 10.80315654 26 10 C27.258125 9.855625 28.51625 9.71125 29.8125 9.5625 C30.864375 9.376875 31.91625 9.19125 33 9 C33.33 8.34 33.66 7.68 34 7 C35.32 7.66 36.64 8.32 38 9 C38 9.66 38 10.32 38 11 C40.97 11 43.94 11 47 11 C47.495 11.99 47.495 11.99 48 13 C47.67 13.66 47.34 14.32 47 15 C47.99 15.33 48.98 15.66 50 16 C50 16.99 50 17.98 50 19 C49.01 19.33 48.02 19.66 47 20 C47 21.98 47 23.96 47 26 C44 25 44 25 43 24 C43 25.98 43 27.96 43 30 C42.01 30.33 41.02 30.66 40 31 C39.95101562 30.37351562 39.90203125 29.74703125 39.8515625 29.1015625 C39.77679688 28.28429687 39.70203125 27.46703125 39.625 26.625 C39.52058594 25.40683594 39.52058594 25.40683594 39.4140625 24.1640625 C39.17107412 21.79665809 39.17107412 21.79665809 37 20 C29.88574396 26.4642225 25.21579654 33.41080704 21 42 C19.35 42 17.7 42 16 42 C15.97421875 41.18917969 15.9484375 40.37835938 15.921875 39.54296875 C15.56162564 32.50991865 14.52241303 26.66479751 11.83984375 20.14453125 C11 18 11 18 11 16 C10.34 16 9.68 16 9 16 C8.34 14.68 7.68 13.36 7 12 C6.34 12 5.68 12 5 12 C4.01 14.97 3.02 17.94 2 21 C1.01 20.67 0.02 20.34 -1 20 C-0.67 18.02 -0.34 16.04 0 14 C-0.99 14 -1.98 14 -3 14 C-2.125 9.25 -2.125 9.25 -1 7 C-1.99 7 -2.98 7 -4 7 C-4 6.01 -4 5.02 -4 4 C-2.68 3.34 -1.36 2.68 0 2 C0 1.34 0 0.68 0 0 Z M2 9 C2 9.99 2 10.98 2 12 C2.66 11.01 3.32 10.02 4 9 C3.34 9 2.68 9 2 9 Z M11 10 C11.33 11.32 11.66 12.64 12 14 C13.32 13.67 14.64 13.34 16 13 C15.34 12.01 14.68 11.02 14 10 C13.01 10 12.02 10 11 10 Z M0 12 C1 14 1 14 1 14 Z " fill="#F85463" transform="translate(9,0)"/>
<path d="M0 0 C15.51 0 31.02 0 47 0 C44.92163876 8.31344494 43.59691941 11.81194381 36.76953125 16.546875 C30.61163226 20.03210877 25.00394125 21.22893691 18 20 C11.41575673 17.84325653 5.37318424 14.2335533 2 8 C1.34 5.36 0.68 2.72 0 0 Z " fill="#F29C20" transform="translate(8,42)"/>
<path d="M0 0 C2.10633718 1.70828921 2.93801608 2.52148416 3.29296875 5.26171875 C3.25816406 6.06222656 3.22335938 6.86273438 3.1875 7.6875 C3.16042969 8.49574219 3.13335937 9.30398437 3.10546875 10.13671875 C3.05326172 11.05904297 3.05326172 11.05904297 3 12 C3.66 11.67 4.32 11.34 5 11 C5 8.36 5 5.72 5 3 C6.984375 4.484375 6.984375 4.484375 9 7 C9.29362904 9.92454522 9.38195943 12.35506708 9.25 15.25 C9.1675 17.8075 9.085 20.365 9 23 C0.75 23 -7.5 23 -16 23 C-11.39870216 11.49675539 -11.39870216 11.49675539 -6.3125 6.4375 C-5.81427734 5.91865234 -5.31605469 5.39980469 -4.80273438 4.86523438 C-3.22134377 3.22376381 -1.61168494 1.61168494 0 0 Z " fill="#FB5463" transform="translate(46,19)"/>
<path d="M0 0 C0.66 0 1.32 0 2 0 C1.23492349 4.59045905 1.23492349 4.59045905 -0.01953125 6.77734375 C-2.27436164 11.88889153 -1.75061976 18.87150449 -0.46484375 24.23046875 C2.34586379 31.18812185 6.54642853 34.95484579 13.22265625 38.04296875 C19.89823358 40.34327318 25.89111526 39.83041546 32.3125 37 C37.51852258 34.09026445 41.61536317 29.95234944 43.6171875 24.23828125 C44.18354165 20.92684319 44.36939122 17.5993294 44.5625 14.25 C44.62727539 13.20392578 44.62727539 13.20392578 44.69335938 12.13671875 C44.79889596 10.42468078 44.8998991 8.71236439 45 7 C45.66 7 46.32 7 47 7 C49.12838262 13.38514787 48.93209715 20.66401965 46.3125 26.875 C42.85300469 33.5066969 38.83967056 37.93750966 32.0078125 41.078125 C24.33518714 43.42973485 15.8865733 43.29412582 8.5 40.0625 C2.47013399 36.52497861 -1.29812568 31.32975411 -4.4375 25.1875 C-5.99692777 16.35074266 -5.62567536 8.82092099 -1 1 C-0.67 0.67 -0.34 0.34 0 0 Z " fill="#FB7972" transform="translate(10,22)"/>
<path d="M0 0 C5.625 -0.25 5.625 -0.25 9 2 C9.66 1.34 10.32 0.68 11 0 C12.32 0 13.64 0 15 0 C15.33 0.99 15.66 1.98 16 3 C19.00007271 4.70855022 19.00007271 4.70855022 22 6 C22 6.99 22 7.98 22 9 C19.525 8.505 19.525 8.505 17 8 C17.474375 8.391875 17.94875 8.78375 18.4375 9.1875 C20.35179633 11.40808374 20.61266988 13.13375709 21 16 C20.34 16 19.68 16 19 16 C18.2575 15.175 17.515 14.35 16.75 13.5 C14.22685699 10.72093696 14.22685699 10.72093696 10.875 10.625 C7.93580872 10.9153584 7.93580872 10.9153584 5 12 C3.97718482 14.09719872 3.97718482 14.09719872 3.3125 16.5625 C3.06113281 17.38878906 2.80976563 18.21507813 2.55078125 19.06640625 C2.36902344 19.70449219 2.18726563 20.34257812 2 21 C1.01 20.67 0.02 20.34 -1 20 C-0.67 18.02 -0.34 16.04 0 14 C-0.99 14 -1.98 14 -3 14 C-2.125 9.25 -2.125 9.25 -1 7 C-1.99 7 -2.98 7 -4 7 C-4 6.01 -4 5.02 -4 4 C-2.68 3.34 -1.36 2.68 0 2 C0 1.34 0 0.68 0 0 Z M2 9 C2 9.99 2 10.98 2 12 C2.66 11.01 3.32 10.02 4 9 C3.34 9 2.68 9 2 9 Z M0 12 C1 14 1 14 1 14 Z " fill="#24AD5E" transform="translate(9,0)"/>
<path d="M0 0 C1.32 0.66 2.64 1.32 4 2 C4 2.66 4 3.32 4 4 C6.97 4 9.94 4 13 4 C13.33 4.66 13.66 5.32 14 6 C13.67 6.66 13.34 7.32 13 8 C13.99 8.33 14.98 8.66 16 9 C16 9.99 16 10.98 16 12 C15.01 12.33 14.02 12.66 13 13 C13 14.98 13 16.96 13 19 C10 18 10 18 9 17 C9 18.98 9 20.96 9 23 C8.01 23.33 7.02 23.66 6 24 C5.96261719 23.40832031 5.92523438 22.81664063 5.88671875 22.20703125 C5.48623099 17.39332549 4.9614965 13.99158223 2 10 C0.56206608 10.31049726 -0.8753318 10.6234776 -2.3125 10.9375 C-3.11300781 11.11152344 -3.91351563 11.28554688 -4.73828125 11.46484375 C-7.145401 11.99886159 -7.145401 11.99886159 -10 13 C-9.375 11.0625 -9.375 11.0625 -8 9 C-4.875 8.25 -4.875 8.25 -2 8 C-2 7.34 -2 6.68 -2 6 C-4.64 6 -7.28 6 -10 6 C-10 5.34 -10 4.68 -10 4 C-9.04287109 3.81824219 -9.04287109 3.81824219 -8.06640625 3.6328125 C-7.24011719 3.46523437 -6.41382813 3.29765625 -5.5625 3.125 C-4.73878906 2.96257813 -3.91507813 2.80015625 -3.06640625 2.6328125 C-2.38449219 2.42398437 -1.70257813 2.21515625 -1 2 C-0.67 1.34 -0.34 0.68 0 0 Z " fill="#24AE5C" transform="translate(43,7)"/>
<path d="M0 0 C15.51 0 31.02 0 47 0 C46.67 1.98 46.34 3.96 46 6 C31.15 5.67 16.3 5.34 1 5 C0.67 3.35 0.34 1.7 0 0 Z " fill="#F2D35A" transform="translate(8,42)"/>
<path d="M0 0 C14.19 0 28.38 0 43 0 C42 4 42 4 41 5 C38.13905783 5.11349161 35.30316544 5.16418492 32.44140625 5.16796875 C31.58191879 5.17129715 30.72243134 5.17462555 29.8368988 5.17805481 C28.01521339 5.1831277 26.19351864 5.18546302 24.37182617 5.18530273 C21.5778071 5.18748803 18.78418343 5.20563644 15.99023438 5.22460938 C14.22395969 5.2275434 12.45768312 5.22952814 10.69140625 5.23046875 C9.85178848 5.23765427 9.01217072 5.24483978 8.14710999 5.25224304 C2.22882181 5.22882181 2.22882181 5.22882181 0 3 C0 2.01 0 1.02 0 0 Z " fill="#F0C319" transform="translate(10,47)"/>
<path d="M0 0 C8.91 0 17.82 0 27 0 C22.86952747 4.13047253 19.4744874 5.29125199 13.6875 5.375 C8.13962751 5.29982558 4.71247262 3.84526649 0 1 C0 0.67 0 0.34 0 0 Z " fill="#E78128" transform="translate(18,57)"/>
<path d="M0 0 C0.99 0 1.98 0 3 0 C3.79441072 1.87383903 4.58539974 3.74912886 5.375 5.625 C5.81585937 6.66914063 6.25671875 7.71328125 6.7109375 8.7890625 C9.04744393 14.6090876 10.24445115 19.04408905 10.125 25.375 C10.10695313 26.62023437 10.08890625 27.86546875 10.0703125 29.1484375 C10.04710937 30.08945312 10.02390625 31.03046875 10 32 C9.34 32 8.68 32 8 32 C7.97421875 31.18917969 7.9484375 30.37835938 7.921875 29.54296875 C7.56162564 22.50991865 6.52241303 16.66479751 3.83984375 10.14453125 C3 8 3 8 3 6 C2.34 6 1.68 6 1 6 C0.67 4.02 0.34 2.04 0 0 Z " fill="#92473D" transform="translate(17,10)"/>
<path d="M0 0 C2.5 0.4375 2.5 0.4375 4.3125 1.625 C5.5 3.4375 5.5 3.4375 5.5 8.4375 C2.2 8.4375 -1.1 8.4375 -4.5 8.4375 C-5.5 4.4375 -5.5 4.4375 -4.375 2.1875 C-2.5 0.4375 -2.5 0.4375 0 0 Z " fill="#A05B9E" transform="translate(41.5,33.5625)"/>
<path d="M0 0 C0.72265625 1.7734375 0.72265625 1.7734375 1 4 C-0.44140625 5.7890625 -0.44140625 5.7890625 -2.5625 7.625 C-8.20031159 12.8974893 -11.62713645 19.12818454 -15 26 C-15.66 26 -16.32 26 -17 26 C-15.17581671 18.65114733 -11.9151225 13.68592583 -7 8 C-6.33613281 7.2265625 -5.67226563 6.453125 -4.98828125 5.65625 C-3.34001491 3.7572332 -1.67845784 1.87232227 0 0 Z " fill="#8E463C" transform="translate(45,16)"/>
<path d="M0 0 C2.29013653 3.4352048 2.17842973 4.985331 2 9 C1.01 9.33 0.02 9.66 -1 10 C-1.125 2.25 -1.125 2.25 0 0 Z " fill="#5B9660" transform="translate(50,21)"/>
<path d="M0 0 C0.99 0 1.98 0 3 0 C3.66 2.64 4.32 5.28 5 8 C4.34 8 3.68 8 3 8 C3 7.34 3 6.68 3 6 C2.34 6 1.68 6 1 6 C0.67 4.02 0.34 2.04 0 0 Z " fill="#814437" transform="translate(17,10)"/>
<path d="M0 0 C0 0.33 0 0.66 0 1 C-1.093125 1.309375 -2.18625 1.61875 -3.3125 1.9375 C-5.55407994 2.58337897 -7.7869351 3.2623117 -10 4 C-7.53453745 -1.4592385 -5.69047474 -1.11335375 0 0 Z " fill="#42A15F" transform="translate(43,16)"/>
</svg>
