<svg width="259" height="56" viewBox="0 0 259 56" fill="none" xmlns="http://www.w3.org/2000/svg">
<rect y="5" width="259" height="51" fill="white"/>
<path d="M23.96 45.944C26.104 45.944 27.832 45.416 29.144 44.36C30.488 43.304 31.16 41.752 31.16 39.704C31.16 38.072 30.664 36.712 29.672 35.624C28.68 34.504 26.952 33.608 24.488 32.936L21.176 31.976C18.744 31.304 16.888 30.168 15.608 28.568C14.328 26.968 13.688 25.016 13.688 22.712C13.688 21.176 14.04 19.736 14.744 18.392C15.48 17.048 16.584 15.96 18.056 15.128C19.56 14.296 21.464 13.88 23.768 13.88C26.328 13.88 28.392 14.36 29.96 15.32C31.528 16.248 32.616 17.464 33.224 18.968C33.832 20.472 33.976 22.088 33.656 23.816L29.624 24.68C30.04 21.704 29.736 19.416 28.712 17.816C27.72 16.216 25.992 15.416 23.528 15.416C21.576 15.416 20.04 15.944 18.92 17C17.8 18.024 17.24 19.528 17.24 21.512C17.24 23.08 17.688 24.424 18.584 25.544C19.48 26.632 21.064 27.496 23.336 28.136L26.648 29.096C31.992 30.568 34.664 33.688 34.664 38.456C34.664 40.152 34.264 41.688 33.464 43.064C32.696 44.408 31.512 45.48 29.912 46.28C28.344 47.08 26.36 47.48 23.96 47.48C22.296 47.48 20.696 47.224 19.16 46.712C17.656 46.2 16.36 45.32 15.272 44.072C14.216 42.824 13.512 41.096 13.16 38.888L16.04 37.928C16.2 40.04 16.664 41.672 17.432 42.824C18.2 43.976 19.16 44.792 20.312 45.272C21.464 45.72 22.68 45.944 23.96 45.944Z" fill="#7AD3D3"/>
<path d="M37.9209 14.36H63.4569V22.184H62.2089L60.8169 17.144C60.7209 16.76 60.6089 16.488 60.4809 16.328C60.3849 16.136 60.1769 16.024 59.8569 15.992C59.5369 15.928 58.9929 15.896 58.2249 15.896H52.8009V43.112C52.8009 44.232 52.8489 44.888 52.9449 45.08C53.0409 45.272 53.3449 45.4 53.8569 45.464L56.4969 45.752V47H44.9289V45.752L47.5689 45.464C48.0809 45.4 48.3849 45.272 48.4809 45.08C48.5769 44.888 48.6249 44.232 48.6249 43.112V15.896H43.1529C42.4169 15.896 41.8729 15.928 41.5209 15.992C41.2009 16.024 40.9769 16.136 40.8489 16.328C40.7529 16.488 40.6569 16.76 40.5609 17.144L39.1689 22.184H37.9209V14.36ZM66.4134 15.656V14.36H79.7574C82.8934 14.36 85.2934 15.112 86.9574 16.616C88.6534 18.088 89.5014 20.056 89.5014 22.52V24.008C89.5014 25.96 88.9574 27.624 87.8694 29C86.8134 30.344 85.2934 31.272 83.3094 31.784L89.4534 43.112C89.8694 43.88 90.1734 44.424 90.3654 44.744C90.5574 45.032 90.7334 45.224 90.8934 45.32C91.0854 45.384 91.3414 45.432 91.6614 45.464L93.8214 45.752V47H86.5734L78.9894 32.216H74.2854V43.112C74.2854 44.232 74.3334 44.888 74.4294 45.08C74.5254 45.272 74.8294 45.4 75.3414 45.464L77.9814 45.752V47H66.4134V45.752L69.0534 45.464C69.5654 45.4 69.8694 45.272 69.9654 45.08C70.0614 44.888 70.1094 44.232 70.1094 43.112V18.248C70.1094 17.128 70.0614 16.472 69.9654 16.28C69.8694 16.088 69.5654 15.96 69.0534 15.896L66.4134 15.656ZM79.7574 15.896H74.2854V30.68H79.7574C81.4214 30.68 82.7174 30.152 83.6454 29.096C84.6054 28.008 85.0854 26.376 85.0854 24.2V22.328C85.0854 20.152 84.6054 18.536 83.6454 17.48C82.7174 16.424 81.4214 15.896 79.7574 15.896ZM103.133 45.752V47H94.0134V45.752L96.6054 45.464C96.9574 45.432 97.2134 45.384 97.3734 45.32C97.5334 45.224 97.6774 45.032 97.8054 44.744C97.9654 44.424 98.1574 43.88 98.3814 43.112L107.645 14.36H110.669L120.029 43.112C120.253 43.88 120.429 44.424 120.557 44.744C120.717 45.032 120.877 45.224 121.037 45.32C121.197 45.384 121.437 45.432 121.757 45.464L124.397 45.752V47H112.733V45.752L115.373 45.464C115.885 45.4 116.157 45.272 116.189 45.08C116.253 44.856 116.109 44.2 115.757 43.112L113.789 36.968H102.077L100.109 43.112C99.7574 44.2 99.5974 44.856 99.6294 45.08C99.6934 45.272 99.9814 45.4 100.493 45.464L103.133 45.752ZM102.557 35.432H113.309L107.933 18.728L102.557 35.432ZM146.378 15.656V14.36H155.546V15.656L152.906 15.896C152.394 15.96 152.09 16.104 151.994 16.328C151.898 16.52 151.85 17.16 151.85 18.248V47H149.498L132.026 17.528V43.112C132.026 44.2 132.074 44.856 132.17 45.08C132.266 45.272 132.57 45.4 133.082 45.464L135.722 45.752V47H126.554V45.752L129.194 45.464C129.706 45.4 130.01 45.272 130.106 45.08C130.202 44.856 130.25 44.2 130.25 43.112V18.248C130.25 17.16 130.202 16.52 130.106 16.328C130.01 16.104 129.706 15.96 129.194 15.896L126.554 15.656V14.36H134.858L150.074 40.088V18.248C150.074 17.16 150.026 16.52 149.93 16.328C149.834 16.104 149.53 15.96 149.018 15.896L146.378 15.656ZM159.742 15.656V14.36H173.374C177.278 14.36 180.27 15.624 182.35 18.152C184.43 20.68 185.47 24.248 185.47 28.856V32.456C185.47 37.096 184.43 40.68 182.35 43.208C180.27 45.736 177.278 47 173.374 47H159.742V45.752L162.382 45.464C162.894 45.4 163.198 45.272 163.294 45.08C163.39 44.888 163.438 44.232 163.438 43.112V18.248C163.438 17.128 163.39 16.472 163.294 16.28C163.198 16.088 162.894 15.96 162.382 15.896L159.742 15.656ZM173.278 15.896H167.614V45.464H173.278C175.006 45.464 176.43 45.144 177.55 44.504C178.67 43.864 179.502 42.776 180.046 41.24C180.622 39.672 180.91 37.544 180.91 34.856V26.456C180.91 23.8 180.622 21.704 180.046 20.168C179.502 18.632 178.67 17.544 177.55 16.904C176.43 16.232 175.006 15.896 173.278 15.896ZM213.079 39.176H214.327V47H191.335V45.752L193.975 45.464C194.487 45.4 194.791 45.272 194.887 45.08C194.983 44.888 195.031 44.232 195.031 43.112V18.248C195.031 17.128 194.983 16.472 194.887 16.28C194.791 16.088 194.487 15.96 193.975 15.896L191.335 15.656V14.36H213.703V22.184H212.503L211.111 17.144C211.015 16.76 210.903 16.488 210.775 16.328C210.679 16.136 210.471 16.024 210.151 15.992C209.831 15.928 209.287 15.896 208.519 15.896H199.207V29.768H205.639C206.407 29.768 206.951 29.752 207.271 29.72C207.591 29.656 207.799 29.544 207.895 29.384C208.023 29.192 208.135 28.904 208.231 28.52L209.143 24.92H210.391V36.152H209.143L208.231 32.552C208.135 32.168 208.023 31.896 207.895 31.736C207.799 31.544 207.591 31.432 207.271 31.4C206.951 31.336 206.407 31.304 205.639 31.304H199.207V45.464H209.095C209.863 45.464 210.407 45.448 210.727 45.416C211.047 45.352 211.255 45.24 211.351 45.08C211.479 44.888 211.591 44.6 211.687 44.216L213.079 39.176ZM219.179 15.656V14.36H232.523C235.659 14.36 238.059 15.112 239.723 16.616C241.419 18.088 242.267 20.056 242.267 22.52V24.008C242.267 25.96 241.723 27.624 240.635 29C239.579 30.344 238.059 31.272 236.075 31.784L242.219 43.112C242.635 43.88 242.939 44.424 243.131 44.744C243.323 45.032 243.499 45.224 243.659 45.32C243.851 45.384 244.107 45.432 244.427 45.464L246.587 45.752V47H239.339L231.755 32.216H227.051V43.112C227.051 44.232 227.099 44.888 227.195 45.08C227.291 45.272 227.595 45.4 228.107 45.464L230.747 45.752V47H219.179V45.752L221.819 45.464C222.331 45.4 222.635 45.272 222.731 45.08C222.827 44.888 222.875 44.232 222.875 43.112V18.248C222.875 17.128 222.827 16.472 222.731 16.28C222.635 16.088 222.331 15.96 221.819 15.896L219.179 15.656ZM232.523 15.896H227.051V30.68H232.523C234.187 30.68 235.483 30.152 236.411 29.096C237.371 28.008 237.851 26.376 237.851 24.2V22.328C237.851 20.152 237.371 18.536 236.411 17.48C235.483 16.424 234.187 15.896 232.523 15.896Z" fill="black"/>
<path d="M23.96 45.944C26.104 45.944 27.832 45.416 29.144 44.36C30.488 43.304 31.16 41.752 31.16 39.704C31.16 38.072 30.664 36.712 29.672 35.624C28.68 34.504 26.952 33.608 24.488 32.936L21.176 31.976C18.744 31.304 16.888 30.168 15.608 28.568C14.328 26.968 13.688 25.016 13.688 22.712C13.688 21.176 14.04 19.736 14.744 18.392C15.48 17.048 16.584 15.96 18.056 15.128C19.56 14.296 21.464 13.88 23.768 13.88C26.328 13.88 28.392 14.36 29.96 15.32C31.528 16.248 32.616 17.464 33.224 18.968C33.832 20.472 33.976 22.088 33.656 23.816L29.624 24.68C30.04 21.704 29.736 19.416 28.712 17.816C27.72 16.216 25.992 15.416 23.528 15.416C21.576 15.416 20.04 15.944 18.92 17C17.8 18.024 17.24 19.528 17.24 21.512C17.24 23.08 17.688 24.424 18.584 25.544C19.48 26.632 21.064 27.496 23.336 28.136L26.648 29.096C31.992 30.568 34.664 33.688 34.664 38.456C34.664 40.152 34.264 41.688 33.464 43.064C32.696 44.408 31.512 45.48 29.912 46.28C28.344 47.08 26.36 47.48 23.96 47.48C22.296 47.48 20.696 47.224 19.16 46.712C17.656 46.2 16.36 45.32 15.272 44.072C14.216 42.824 13.512 41.096 13.16 38.888L16.04 37.928C16.2 40.04 16.664 41.672 17.432 42.824C18.2 43.976 19.16 44.792 20.312 45.272C21.464 45.72 22.68 45.944 23.96 45.944Z" fill="#7AD3D3"/>
<path d="M37.9209 14.36H63.4569V22.184H62.2089L60.8169 17.144C60.7209 16.76 60.6089 16.488 60.4809 16.328C60.3849 16.136 60.1769 16.024 59.8569 15.992C59.5369 15.928 58.9929 15.896 58.2249 15.896H52.8009V43.112C52.8009 44.232 52.8489 44.888 52.9449 45.08C53.0409 45.272 53.3449 45.4 53.8569 45.464L56.4969 45.752V47H44.9289V45.752L47.5689 45.464C48.0809 45.4 48.3849 45.272 48.4809 45.08C48.5769 44.888 48.6249 44.232 48.6249 43.112V15.896H43.1529C42.4169 15.896 41.8729 15.928 41.5209 15.992C41.2009 16.024 40.9769 16.136 40.8489 16.328C40.7529 16.488 40.6569 16.76 40.5609 17.144L39.1689 22.184H37.9209V14.36ZM66.4134 15.656V14.36H79.7574C82.8934 14.36 85.2934 15.112 86.9574 16.616C88.6534 18.088 89.5014 20.056 89.5014 22.52V24.008C89.5014 25.96 88.9574 27.624 87.8694 29C86.8134 30.344 85.2934 31.272 83.3094 31.784L89.4534 43.112C89.8694 43.88 90.1734 44.424 90.3654 44.744C90.5574 45.032 90.7334 45.224 90.8934 45.32C91.0854 45.384 91.3414 45.432 91.6614 45.464L93.8214 45.752V47H86.5734L78.9894 32.216H74.2854V43.112C74.2854 44.232 74.3334 44.888 74.4294 45.08C74.5254 45.272 74.8294 45.4 75.3414 45.464L77.9814 45.752V47H66.4134V45.752L69.0534 45.464C69.5654 45.4 69.8694 45.272 69.9654 45.08C70.0614 44.888 70.1094 44.232 70.1094 43.112V18.248C70.1094 17.128 70.0614 16.472 69.9654 16.28C69.8694 16.088 69.5654 15.96 69.0534 15.896L66.4134 15.656ZM79.7574 15.896H74.2854V30.68H79.7574C81.4214 30.68 82.7174 30.152 83.6454 29.096C84.6054 28.008 85.0854 26.376 85.0854 24.2V22.328C85.0854 20.152 84.6054 18.536 83.6454 17.48C82.7174 16.424 81.4214 15.896 79.7574 15.896ZM103.133 45.752V47H94.0134V45.752L96.6054 45.464C96.9574 45.432 97.2134 45.384 97.3734 45.32C97.5334 45.224 97.6774 45.032 97.8054 44.744C97.9654 44.424 98.1574 43.88 98.3814 43.112L107.645 14.36H110.669L120.029 43.112C120.253 43.88 120.429 44.424 120.557 44.744C120.717 45.032 120.877 45.224 121.037 45.32C121.197 45.384 121.437 45.432 121.757 45.464L124.397 45.752V47H112.733V45.752L115.373 45.464C115.885 45.4 116.157 45.272 116.189 45.08C116.253 44.856 116.109 44.2 115.757 43.112L113.789 36.968H102.077L100.109 43.112C99.7574 44.2 99.5974 44.856 99.6294 45.08C99.6934 45.272 99.9814 45.4 100.493 45.464L103.133 45.752ZM102.557 35.432H113.309L107.933 18.728L102.557 35.432ZM146.378 15.656V14.36H155.546V15.656L152.906 15.896C152.394 15.96 152.09 16.104 151.994 16.328C151.898 16.52 151.85 17.16 151.85 18.248V47H149.498L132.026 17.528V43.112C132.026 44.2 132.074 44.856 132.17 45.08C132.266 45.272 132.57 45.4 133.082 45.464L135.722 45.752V47H126.554V45.752L129.194 45.464C129.706 45.4 130.01 45.272 130.106 45.08C130.202 44.856 130.25 44.2 130.25 43.112V18.248C130.25 17.16 130.202 16.52 130.106 16.328C130.01 16.104 129.706 15.96 129.194 15.896L126.554 15.656V14.36H134.858L150.074 40.088V18.248C150.074 17.16 150.026 16.52 149.93 16.328C149.834 16.104 149.53 15.96 149.018 15.896L146.378 15.656ZM159.742 15.656V14.36H173.374C177.278 14.36 180.27 15.624 182.35 18.152C184.43 20.68 185.47 24.248 185.47 28.856V32.456C185.47 37.096 184.43 40.68 182.35 43.208C180.27 45.736 177.278 47 173.374 47H159.742V45.752L162.382 45.464C162.894 45.4 163.198 45.272 163.294 45.08C163.39 44.888 163.438 44.232 163.438 43.112V18.248C163.438 17.128 163.39 16.472 163.294 16.28C163.198 16.088 162.894 15.96 162.382 15.896L159.742 15.656ZM173.278 15.896H167.614V45.464H173.278C175.006 45.464 176.43 45.144 177.55 44.504C178.67 43.864 179.502 42.776 180.046 41.24C180.622 39.672 180.91 37.544 180.91 34.856V26.456C180.91 23.8 180.622 21.704 180.046 20.168C179.502 18.632 178.67 17.544 177.55 16.904C176.43 16.232 175.006 15.896 173.278 15.896ZM213.079 39.176H214.327V47H191.335V45.752L193.975 45.464C194.487 45.4 194.791 45.272 194.887 45.08C194.983 44.888 195.031 44.232 195.031 43.112V18.248C195.031 17.128 194.983 16.472 194.887 16.28C194.791 16.088 194.487 15.96 193.975 15.896L191.335 15.656V14.36H213.703V22.184H212.503L211.111 17.144C211.015 16.76 210.903 16.488 210.775 16.328C210.679 16.136 210.471 16.024 210.151 15.992C209.831 15.928 209.287 15.896 208.519 15.896H199.207V29.768H205.639C206.407 29.768 206.951 29.752 207.271 29.72C207.591 29.656 207.799 29.544 207.895 29.384C208.023 29.192 208.135 28.904 208.231 28.52L209.143 24.92H210.391V36.152H209.143L208.231 32.552C208.135 32.168 208.023 31.896 207.895 31.736C207.799 31.544 207.591 31.432 207.271 31.4C206.951 31.336 206.407 31.304 205.639 31.304H199.207V45.464H209.095C209.863 45.464 210.407 45.448 210.727 45.416C211.047 45.352 211.255 45.24 211.351 45.08C211.479 44.888 211.591 44.6 211.687 44.216L213.079 39.176ZM219.179 15.656V14.36H232.523C235.659 14.36 238.059 15.112 239.723 16.616C241.419 18.088 242.267 20.056 242.267 22.52V24.008C242.267 25.96 241.723 27.624 240.635 29C239.579 30.344 238.059 31.272 236.075 31.784L242.219 43.112C242.635 43.88 242.939 44.424 243.131 44.744C243.323 45.032 243.499 45.224 243.659 45.32C243.851 45.384 244.107 45.432 244.427 45.464L246.587 45.752V47H239.339L231.755 32.216H227.051V43.112C227.051 44.232 227.099 44.888 227.195 45.08C227.291 45.272 227.595 45.4 228.107 45.464L230.747 45.752V47H219.179V45.752L221.819 45.464C222.331 45.4 222.635 45.272 222.731 45.08C222.827 44.888 222.875 44.232 222.875 43.112V18.248C222.875 17.128 222.827 16.472 222.731 16.28C222.635 16.088 222.331 15.96 221.819 15.896L219.179 15.656ZM232.523 15.896H227.051V30.68H232.523C234.187 30.68 235.483 30.152 236.411 29.096C237.371 28.008 237.851 26.376 237.851 24.2V22.328C237.851 20.152 237.371 18.536 236.411 17.48C235.483 16.424 234.187 15.896 232.523 15.896Z" fill="#5C5959"/>
</svg>
