<svg width="259" height="56" viewBox="0 0 259 56" fill="none" xmlns="http://www.w3.org/2000/svg">
<rect y="5" width="259" height="51" fill="white"/>
<path d="M24.96 45.944C27.104 45.944 28.832 45.416 30.144 44.36C31.488 43.304 32.16 41.752 32.16 39.704C32.16 38.072 31.664 36.712 30.672 35.624C29.68 34.504 27.952 33.608 25.488 32.936L22.176 31.976C19.744 31.304 17.888 30.168 16.608 28.568C15.328 26.968 14.688 25.016 14.688 22.712C14.688 21.176 15.04 19.736 15.744 18.392C16.48 17.048 17.584 15.96 19.056 15.128C20.56 14.296 22.464 13.88 24.768 13.88C27.328 13.88 29.392 14.36 30.96 15.32C32.528 16.248 33.616 17.464 34.224 18.968C34.832 20.472 34.976 22.088 34.656 23.816L30.624 24.68C31.04 21.704 30.736 19.416 29.712 17.816C28.72 16.216 26.992 15.416 24.528 15.416C22.576 15.416 21.04 15.944 19.92 17C18.8 18.024 18.24 19.528 18.24 21.512C18.24 23.08 18.688 24.424 19.584 25.544C20.48 26.632 22.064 27.496 24.336 28.136L27.648 29.096C32.992 30.568 35.664 33.688 35.664 38.456C35.664 40.152 35.264 41.688 34.464 43.064C33.696 44.408 32.512 45.48 30.912 46.28C29.344 47.08 27.36 47.48 24.96 47.48C23.296 47.48 21.696 47.224 20.16 46.712C18.656 46.2 17.36 45.32 16.272 44.072C15.216 42.824 14.512 41.096 14.16 38.888L17.04 37.928C17.2 40.04 17.664 41.672 18.432 42.824C19.2 43.976 20.16 44.792 21.312 45.272C22.464 45.72 23.68 45.944 24.96 45.944Z" fill="#7AD3D3"/>
<path d="M55.0489 47.048C54.1529 47.048 53.5289 46.584 53.1769 45.656C52.8249 44.728 52.5369 43.48 52.3129 41.912L52.1689 40.712C51.6889 38.152 51.3049 35.608 51.0169 33.08C50.7289 30.52 50.4409 27.432 50.1529 23.816L49.8649 20.264C47.9449 20.296 45.2089 20.216 41.6569 20.024L40.6969 19.976C40.2489 19.944 39.9289 19.736 39.7369 19.352C39.5769 18.936 39.4969 18.376 39.4969 17.672H42.8089C48.3769 17.672 53.4009 17.88 57.8809 18.296C62.3609 18.712 64.6009 19.56 64.6009 20.84C64.6009 21.192 64.5369 21.432 64.4089 21.56C64.3129 21.688 64.0889 21.752 63.7369 21.752C62.4569 21.656 60.4729 21.384 57.7849 20.936C57.1769 20.84 56.4409 20.728 55.5769 20.6C54.7129 20.472 53.7369 20.344 52.6489 20.216C52.6489 24.856 53.3369 31.992 54.7129 41.624C54.7769 42.104 55.0009 42.792 55.3849 43.688C55.5449 44.072 55.6889 44.488 55.8169 44.936C55.9769 45.352 56.0569 45.736 56.0569 46.088C56.0569 46.536 55.9929 46.808 55.8649 46.904C55.7369 47 55.5769 47.048 55.3849 47.048C55.2249 47.048 55.1129 47.048 55.0489 47.048ZM91.9245 48.632C91.7005 48.888 91.3805 49.016 90.9645 49.016C89.4605 49.016 87.0605 47.64 83.7645 44.888C80.5005 42.104 77.6045 39.336 75.0765 36.584C75.2365 37.448 75.5405 38.904 75.9885 40.952C76.1805 41.752 76.3405 42.52 76.4685 43.256C76.6285 43.992 76.7085 44.568 76.7085 44.984C76.7085 45.912 76.3725 46.472 75.7005 46.664C75.5405 47.08 75.1085 46.04 74.4045 43.544C73.7325 41.048 73.0925 38.168 72.4845 34.904C71.9085 31.608 71.6205 28.856 71.6205 26.648C71.6205 25.528 71.7165 24.616 71.9085 23.912C72.3245 23.592 72.6765 23.432 72.9645 23.432C73.5405 23.432 73.9405 23.928 74.1645 24.92C74.3885 25.88 74.5965 27.4 74.7885 29.48L74.8845 30.584C76.1325 30.52 77.8285 30.248 79.9725 29.768C82.1485 29.288 84.0845 28.632 85.7805 27.8C87.5085 26.936 88.3725 25.912 88.3725 24.728C88.3725 24.088 87.9085 23.384 86.9805 22.616C86.0845 21.816 84.6925 21.144 82.8045 20.6C80.9485 20.056 78.6605 19.784 75.9405 19.784H74.4045C72.5805 19.784 71.1565 20.088 70.1325 20.696C69.1085 21.272 68.5965 22.52 68.5965 24.44C68.1165 24.44 67.6845 24.136 67.3005 23.528C66.9165 22.92 66.7245 22.36 66.7245 21.848C66.7245 19.864 67.6685 18.568 69.5565 17.96C71.4765 17.352 74.2285 17.048 77.8125 17.048C79.7005 17.048 81.6685 17.352 83.7165 17.96C85.7645 18.568 87.4925 19.528 88.9005 20.84C90.3085 22.12 91.0125 23.72 91.0125 25.64C91.0125 26.952 90.4205 28.04 89.2365 28.904C88.0845 29.768 86.7245 30.44 85.1565 30.92C83.5885 31.4 81.6685 31.896 79.3965 32.408C77.5085 32.824 76.2765 33.128 75.7005 33.32C78.1645 36.648 80.5325 39.24 82.8045 41.096C85.1085 42.952 87.5085 44.632 90.0045 46.136C90.8685 46.648 91.4765 47.032 91.8285 47.288C92.1805 47.544 92.3565 47.784 92.3565 48.008C92.3565 48.232 92.2125 48.44 91.9245 48.632ZM116.824 47.048C116.44 47.048 116.168 46.952 116.008 46.76C115.88 46.568 115.816 46.296 115.816 45.944C115.816 45.24 115.976 44.152 116.296 42.68C116.648 41.336 116.824 40.232 116.824 39.368C116.824 36.872 116.632 34.968 116.248 33.656H114.76C113.448 33.656 111.736 33.624 109.624 33.56L105.112 33.512H98.6318L98.7278 35.384C98.7278 36.856 98.9678 38.696 99.4478 40.904C99.6078 41.8 99.7518 42.712 99.8798 43.64C100.04 44.536 100.12 45.352 100.12 46.088V46.52C99.7998 46.84 99.4638 47 99.1118 47C98.2798 47 97.6238 46.024 97.1438 44.072C96.6638 42.088 96.4238 39.704 96.4238 36.92C96.4238 35.8 96.4718 34.696 96.5678 33.608C95.8638 33.576 95.3838 33.464 95.1278 33.272C94.8718 33.048 94.7438 32.712 94.7438 32.264C94.7438 31.912 94.8398 31.672 95.0318 31.544C95.2558 31.416 95.6398 31.32 96.1838 31.256L96.1358 29.96L96.2798 27.752C96.5038 24.136 96.8398 21.192 97.2878 18.92C97.7358 16.648 98.6958 14.68 100.168 13.016C101.64 11.352 103.848 10.52 106.792 10.52C110.152 10.52 112.776 12.328 114.664 15.944C116.552 19.56 117.832 23.592 118.504 28.04C119.176 32.488 119.512 36.312 119.512 39.512C119.512 40.664 119.48 41.672 119.416 42.536C119.352 43.368 119.224 44.408 119.032 45.656C118.296 46.584 117.56 47.048 116.824 47.048ZM116.056 31.784C115.448 25.864 114.36 21.224 112.792 17.864C111.224 14.472 108.872 12.776 105.736 12.776C103.4 12.776 101.672 13.864 100.552 16.04C99.4638 18.184 98.8078 20.488 98.5838 22.952C98.3598 25.416 98.2478 28.184 98.2478 31.256L116.056 31.784ZM145.058 23.096C145.986 23.096 146.946 24.008 147.938 25.832C148.93 27.656 149.762 29.752 150.434 32.12C151.106 34.456 151.442 36.2 151.442 37.352C151.442 39.112 151.058 40.696 150.29 42.104C149.554 43.48 148.498 44.568 147.122 45.368C145.746 46.136 144.178 46.52 142.418 46.52C139.986 46.52 137.874 45.864 136.082 44.552C134.322 43.24 132.914 41.736 131.858 40.04C130.802 38.312 129.714 36.248 128.594 33.848L127.922 32.408L128.018 44.024C128.018 44.728 127.89 45.416 127.634 46.088C127.41 46.728 127.01 47.048 126.434 47.048C125.858 47.048 125.442 46.728 125.186 46.088C124.93 45.416 124.802 44.76 124.802 44.12C124.802 42.072 124.962 39.128 125.282 35.288C125.602 31.448 125.762 28.584 125.762 26.696C125.762 26.248 125.73 25.784 125.666 25.304C125.602 24.824 125.554 24.488 125.522 24.296C125.362 23.432 125.282 22.664 125.282 21.992V21.8C125.378 21.8 125.666 21.736 126.146 21.608C126.658 21.448 126.962 21.368 127.058 21.368H127.538C128.754 26.84 130.546 31.896 132.914 36.536C135.314 41.144 138.594 43.448 142.754 43.448C144.706 43.448 146.178 42.872 147.17 41.72C148.194 40.536 148.706 38.952 148.706 36.968C148.706 35.272 148.434 33.72 147.89 32.312C147.346 30.872 146.53 29.112 145.442 27.032L144.146 24.488C144.05 24.328 144.002 24.168 144.002 24.008C144.002 23.752 144.098 23.544 144.29 23.384C144.482 23.192 144.738 23.096 145.058 23.096ZM128.018 44.024V43.928V44.024ZM164.105 44.12C164.105 43.736 164.137 43.448 164.201 43.256C164.297 43.032 164.505 42.92 164.825 42.92C165.113 42.92 165.433 42.984 165.785 43.112C166.169 43.24 166.537 43.384 166.889 43.544C167.785 43.928 168.585 44.216 169.289 44.408C170.025 44.6 170.937 44.696 172.025 44.696C175.993 44.696 178.969 43.752 180.953 41.864C182.969 39.976 183.977 37.512 183.977 34.472C183.977 31.752 183.209 29.368 181.673 27.32C180.137 25.24 178.185 23.608 175.817 22.424C173.481 21.24 171.097 20.536 168.665 20.312L171.401 40.616C171.401 41.16 171.321 41.608 171.161 41.96C171.033 42.312 170.713 42.488 170.201 42.488C170.073 42.552 169.833 41.688 169.481 39.896C169.129 38.104 168.649 35.464 168.041 31.976C167.337 27.912 166.793 24.904 166.409 22.952C166.025 20.968 165.721 19.832 165.497 19.544C162.841 19.544 160.665 19.688 158.969 19.976C157.273 20.232 155.977 20.536 155.081 20.888C154.185 21.24 153.816 21.416 153.976 21.416C153.816 21.352 153.704 21.256 153.64 21.128C153.576 20.968 153.528 20.744 153.496 20.456C153.432 20.168 153.384 19.96 153.352 19.832C153.352 19.064 154.04 18.456 155.417 18.008C156.793 17.56 158.233 17.256 159.737 17.096C161.273 16.936 162.297 16.856 162.809 16.856C166.233 16.856 169.801 17.56 173.513 18.968C177.225 20.344 180.345 22.376 182.873 25.064C185.401 27.752 186.665 30.936 186.665 34.616C186.665 37.368 185.977 39.72 184.601 41.672C183.225 43.592 181.417 45.048 179.177 46.04C176.969 47.032 174.601 47.528 172.073 47.528C170.025 47.528 168.185 47.208 166.553 46.568C164.921 45.928 164.105 45.112 164.105 44.12ZM201.947 47.048C199.291 47.048 197.355 46.552 196.139 45.56C194.955 44.568 194.363 42.776 194.363 40.184L195.035 29.432V19.112C195.035 18.312 195.195 17.8 195.515 17.576C195.835 17.32 196.539 17.192 197.627 17.192L200.891 17.288C204.987 17.512 208.987 17.624 212.891 17.624C213.723 17.624 214.379 17.864 214.859 18.344C215.371 18.824 215.627 19.48 215.627 20.312C215.627 20.472 215.579 20.6 215.483 20.696C215.387 20.792 215.275 20.824 215.147 20.792L212.891 19.928L197.867 20.312C197.675 20.312 197.563 20.296 197.531 20.264C197.659 20.52 197.723 20.744 197.723 20.936V29.432C199.195 29.528 200.619 29.576 201.995 29.576C204.363 29.576 206.971 29.464 209.819 29.24C210.107 29.208 210.539 29.176 211.115 29.144C211.723 29.08 212.059 29.08 212.123 29.144C212.315 29.336 212.459 29.512 212.555 29.672C212.651 29.832 212.715 30.056 212.747 30.344C212.843 31.048 211.771 31.512 209.531 31.736C207.323 31.96 204.363 32.136 200.651 32.264C199.403 32.264 198.363 32.296 197.531 32.36C197.147 33.32 196.955 34.856 196.955 36.968L197.003 39.8V42.92C197.515 43.336 198.075 43.608 198.683 43.736C199.291 43.864 200.283 43.928 201.659 43.928C203.099 43.928 204.507 43.848 205.883 43.688C207.291 43.528 208.123 43.432 208.379 43.4C211.067 43.08 213.067 42.92 214.379 42.92C215.147 42.92 215.675 43 215.963 43.16C216.283 43.288 216.443 43.528 216.443 43.88C216.443 45.992 212.155 47.048 203.579 47.048H201.947ZM244.784 48.632C244.56 48.888 244.24 49.016 243.824 49.016C242.32 49.016 239.92 47.64 236.624 44.888C233.36 42.104 230.464 39.336 227.936 36.584C228.096 37.448 228.4 38.904 228.848 40.952C229.04 41.752 229.2 42.52 229.328 43.256C229.488 43.992 229.568 44.568 229.568 44.984C229.568 45.912 229.232 46.472 228.56 46.664C228.4 47.08 227.968 46.04 227.264 43.544C226.592 41.048 225.952 38.168 225.344 34.904C224.768 31.608 224.48 28.856 224.48 26.648C224.48 25.528 224.576 24.616 224.768 23.912C225.184 23.592 225.536 23.432 225.824 23.432C226.4 23.432 226.8 23.928 227.024 24.92C227.248 25.88 227.456 27.4 227.648 29.48L227.744 30.584C228.992 30.52 230.688 30.248 232.832 29.768C235.008 29.288 236.944 28.632 238.64 27.8C240.368 26.936 241.232 25.912 241.232 24.728C241.232 24.088 240.768 23.384 239.84 22.616C238.944 21.816 237.552 21.144 235.664 20.6C233.808 20.056 231.52 19.784 228.8 19.784H227.264C225.44 19.784 224.016 20.088 222.992 20.696C221.968 21.272 221.456 22.52 221.456 24.44C220.976 24.44 220.544 24.136 220.16 23.528C219.776 22.92 219.584 22.36 219.584 21.848C219.584 19.864 220.528 18.568 222.416 17.96C224.336 17.352 227.088 17.048 230.672 17.048C232.56 17.048 234.528 17.352 236.576 17.96C238.624 18.568 240.352 19.528 241.76 20.84C243.168 22.12 243.872 23.72 243.872 25.64C243.872 26.952 243.28 28.04 242.096 28.904C240.944 29.768 239.584 30.44 238.016 30.92C236.448 31.4 234.528 31.896 232.256 32.408C230.368 32.824 229.136 33.128 228.56 33.32C231.024 36.648 233.392 39.24 235.664 41.096C237.968 42.952 240.368 44.632 242.864 46.136C243.728 46.648 244.336 47.032 244.688 47.288C245.04 47.544 245.216 47.784 245.216 48.008C245.216 48.232 245.072 48.44 244.784 48.632Z" fill="#5C5959"/>
</svg>
